<?xml version="1.0" encoding="UTF-8"?>
<svg id="Layer_1" data-name="Layer 1" xmlns="http://www.w3.org/2000/svg" version="1.1" viewBox="0 0 13068 9120">
  <defs>
    <style>
      .cls-1 {
        fill: #d69e3d;
        stroke-width: 0px;
      }
    </style>
  </defs>
  <path class="cls-1" d="M3061.7-1028.9V-260h-126.5v-559.2l-233,436.1c-10,20-26.6,30-49.9,30h-20c-23.3,0-39.9-10-49.9-30l-236.3-439.4V-263.3h-126.5v-765.6h136.5s6.7,0,10,6.7c0,0,6.7,6.7,10,13.3l229.7,426.1c6.7,10,10,23.3,16.6,36.6,6.7,13.3,10,23.3,16.6,36.6,0-13.3,10-26.6,16.6-36.6,6.7-13.3,10-23.3,16.6-36.6l226.3-426.1c0-6.7,6.7-10,10-13.3,0,0,6.7-6.7,10-6.7,0,0,143.1,0,143.1,0Z"/>
  <path class="cls-1" d="M3697.5-805.9l-296.3,695.7c0,10-10,16.6-16.6,20-6.7,3.3-16.6,6.7-30,6.7h-96.5l103.2-219.7-219.7-506h116.5c10,0,20,0,23.3,6.7,6.7,3.3,10,10,13.3,16.6l116.5,282.9c0,10,6.7,20,10,30,0,10,6.7,20,6.7,30,0-10,6.7-20,10-30,0-10,6.7-20,10-30l109.8-282.9c0-6.7,6.7-13.3,13.3-16.6,6.7-3.3,13.3-6.7,23.3-6.7h106.5l-3.3,3.3Z"/>
  <path class="cls-1" d="M4546.3-439.7c6.7,0,13.3,0,20,10l56.6,59.9c-30,39.9-69.9,69.9-116.5,89.9-46.6,20-99.9,30-163.1,30s-109.8-10-153.1-30c-46.6-20-83.2-46.6-116.5-79.9-33.3-33.3-56.6-76.6-73.2-123.2-16.6-49.9-26.6-99.9-26.6-159.8s10-109.8,26.6-159.8c20-46.6,43.3-89.9,76.6-123.2,33.3-33.3,73.2-63.2,119.8-79.9,46.6-20,96.5-30,153.1-30s106.5,10,149.8,26.6c43.3,20,79.9,43.3,109.8,73.2l-46.6,66.6c0,3.3-6.7,6.7-10,10,0,0-10,3.3-20,3.3s-10,0-16.6-3.3c-6.7,0-13.3-6.7-20-10-6.7-3.3-13.3-10-23.3-13.3-10-3.3-20-10-30-13.3s-26.6-6.7-39.9-10h-53.3c-33.3,0-66.6,6.7-93.2,20-30,13.3-53.3,30-73.2,53.3-20,23.3-36.6,53.3-46.6,86.5-10,33.3-16.6,73.2-16.6,113.2s6.7,83.2,20,116.5c13.3,33.3,30,63.2,49.9,86.5s46.6,39.9,73.2,53.3c30,13.3,59.9,20,93.2,20h53.3c16.6,0,30-6.7,43.3-10,13.3-3.3,26.6-10,36.6-16.6,13.3-6.7,23.3-16.6,36.6-26.6,0,0,6.7-6.7,10-6.7h13.3v-20l-3.3-3.3Z"/>
  <path class="cls-1" d="M4932.4-815.9c39.9,0,76.6,6.7,109.8,20,33.3,13.3,63.2,33.3,86.5,56.6,23.3,23.3,43.3,53.3,53.3,89.9,13.3,33.3,20,73.2,20,116.5s-6.7,83.2-20,116.5c-13.3,33.3-30,63.2-53.3,89.9-23.3,23.3-53.3,43.3-86.5,56.6-33.3,13.3-69.9,20-109.8,20s-76.6-6.7-109.8-20c-33.3-13.3-63.2-33.3-86.5-56.6-23.3-23.3-43.3-53.3-53.3-89.9-13.3-33.3-20-73.2-20-116.5s6.7-83.2,20-116.5c13.3-33.3,30-63.2,53.3-89.9,23.3-23.3,53.3-43.3,86.5-56.6,33.3-13.3,69.9-20,109.8-20ZM4932.4-353.2c46.6,0,79.9-16.6,99.9-46.6,23.3-30,33.3-76.6,33.3-133.1s-10-103.2-33.3-133.1c-23.3-30-56.6-46.6-99.9-46.6s-79.9,16.6-103.2,46.6c-23.3,30-33.3,76.6-33.3,133.1s10,103.2,33.3,133.1c23.3,30,56.6,46.6,103.2,46.6Z"/>
  <path class="cls-1" d="M5325.2-260v-446l-46.6-6.7c-10,0-20-6.7-23.3-10-6.7-6.7-10-13.3-10-23.3v-53.3h79.9v-30c0-30,3.3-59.9,13.3-83.2,10-23.3,23.3-46.6,39.9-63.2,16.6-16.6,39.9-30,63.2-39.9,23.3-10,53.3-13.3,86.5-13.3s49.9,0,69.9,10v66.6s-3.3,10-6.7,13.3c0,0-6.7,6.7-10,6.7h-30c-16.6,0-30,0-43.3,6.7-13.3,0-23.3,10-30,16.6-6.7,6.7-16.6,20-20,33.3-3.3,13.3-6.7,30-6.7,49.9v26.6h216.4v-49.9c0-30,3.3-59.9,13.3-83.2,10-23.3,23.3-46.6,39.9-63.2,16.6-16.6,39.9-30,63.2-39.9,23.3-10,53.3-13.3,86.5-13.3h36.6c10,0,23.3,0,33.3,6.7v66.6c-3.3,10-10,16.6-16.6,20h-30c-10,0-30,0-43.3,6.7-13.3,0-23.3,10-30,16.6-10,10-16.6,20-20,33.3-3.3,13.3-6.7,30-6.7,49.9v43.3h143.1v93.2h-136.5v449.4h-133.1v-449.4h-213v449.4h-133.1l3.3,3.3Z"/>
  <path class="cls-1" d="M6100.7-516.3c0,26.6,6.7,53.3,13.3,73.2,6.7,20,16.6,36.6,30,49.9,13.3,13.3,26.6,23.3,46.6,30,16.6,6.7,36.6,10,59.9,10s39.9,0,56.6-6.7c16.6-3.3,30-10,39.9-16.6,10-6.7,23.3-10,30-16.6,10-3.3,16.6-6.7,26.6-6.7s20,3.3,23.3,13.3l36.6,46.6c-13.3,16.6-30,30-49.9,43.3-16.6,10-36.6,20-56.6,26.6-20,6.7-39.9,13.3-59.9,13.3s-39.9,3.3-59.9,3.3c-36.6,0-73.2-6.7-106.5-20-33.3-13.3-59.9-30-86.5-56.6-26.6-26.6-43.3-56.6-56.6-93.2-13.3-36.6-20-79.9-20-126.5s6.7-73.2,16.6-106.5c13.3-33.3,30-59.9,53.3-86.5,23.3-23.3,49.9-43.3,83.2-56.6,33.3-13.3,69.9-20,109.8-20s66.6,6.7,96.5,16.6c30,10,53.3,26.6,76.6,46.6,20,20,36.6,46.6,49.9,76.6,13.3,30,16.6,66.6,16.6,106.5s0,33.3-6.7,39.9c-6.7,6.7-13.3,10-23.3,10h-339.5v6.7h0ZM6353.7-596.2c0-16.6,0-33.3-6.7-46.6-3.3-16.6-13.3-30-20-39.9-6.7-10-23.3-20-36.6-26.6-13.3-6.7-33.3-10-49.9-10-36.6,0-66.6,10-89.9,33.3-23.3,23.3-36.6,53.3-43.3,93.2h249.6l-3.3-3.3Z"/>
  <path class="cls-1" d="M6669.9-516.3c0,26.6,6.7,53.3,13.3,73.2,6.7,20,16.6,36.6,30,49.9,13.3,13.3,26.6,23.3,46.6,30,16.6,6.7,36.6,10,59.9,10s39.9,0,56.6-6.7c16.6-3.3,30-10,39.9-16.6s23.3-10,30-16.6c10-3.3,16.6-6.7,26.6-6.7s20,3.3,23.3,13.3l36.6,46.6c-13.3,16.6-30,30-49.9,43.3-16.6,10-36.6,20-56.6,26.6-20,6.7-39.9,13.3-59.9,13.3s-39.9,3.3-59.9,3.3c-36.6,0-73.2-6.7-106.5-20-33.3-13.3-59.9-30-86.5-56.6-26.6-26.6-43.3-56.6-56.6-93.2-13.3-36.6-20-79.9-20-126.5s6.7-73.2,16.6-106.5c13.3-33.3,30-59.9,53.3-86.5,23.3-23.3,49.9-43.3,83.2-56.6,33.3-13.3,69.9-20,109.8-20s66.6,6.7,96.5,16.6c30,10,53.3,26.6,76.6,46.6,20,20,36.6,46.6,49.9,76.6,13.3,30,16.6,66.6,16.6,106.5s0,33.3-6.7,39.9c-6.7,6.7-13.3,10-23.3,10h-339.5v6.7h0ZM6919.6-596.2c0-16.6,0-33.3-6.7-46.6-3.3-16.6-13.3-30-20-39.9-6.7-10-23.3-20-36.6-26.6-13.3-6.7-33.3-10-49.9-10-36.6,0-66.6,10-89.9,33.3-23.3,23.3-36.6,53.3-43.3,93.2h249.6l-3.3-3.3Z"/>
  <path class="cls-1" d="M8068-1028.9V-260h-143.1v-336.2h-362.8v336.2h-143.1v-768.9h143.1v332.9h362.8v-332.9h143.1Z"/>
  <path class="cls-1" d="M8444.1-815.9c39.9,0,76.6,6.7,109.8,20,33.3,13.3,63.2,33.3,86.5,56.6,23.3,23.3,43.3,53.3,53.3,89.9,13.3,33.3,20,73.2,20,116.5s-6.7,83.2-20,116.5c-13.3,33.3-30,63.2-53.3,89.9-23.3,23.3-53.3,43.3-86.5,56.6-33.3,13.3-69.9,20-109.8,20s-76.6-6.7-109.8-20c-33.3-13.3-63.2-33.3-86.5-56.6-23.3-23.3-43.3-53.3-53.3-89.9-13.3-33.3-20-73.2-20-116.5s6.7-83.2,20-116.5c13.3-33.3,30-63.2,53.3-89.9,23.3-23.3,53.3-43.3,86.5-56.6,33.3-13.3,69.9-20,109.8-20ZM8444.1-353.2c46.6,0,79.9-16.6,99.9-46.6,20-30,33.3-76.6,33.3-133.1s-10-103.2-33.3-133.1c-23.3-30-56.6-46.6-99.9-46.6s-79.9,16.6-103.2,46.6c-23.3,30-33.3,76.6-33.3,133.1s10,103.2,33.3,133.1c23.3,30,56.6,46.6,103.2,46.6Z"/>
  <path class="cls-1" d="M9282.9-805.9V-260h-79.9c-16.6,0-30-6.7-33.3-23.3l-10-43.3c-23.3,23.3-46.6,39.9-73.2,56.6-26.6,13.3-59.9,20-96.5,20s-56.6-6.7-79.9-16.6c-23.3-10-43.3-23.3-56.6-43.3-13.3-20-26.6-39.9-36.6-66.6-6.7-26.6-13.3-53.3-13.3-83.2v-346.2h133.1v346.2c0,33.3,6.7,59.9,23.3,76.6,16.6,16.6,39.9,26.6,69.9,26.6s43.3-6.7,63.2-16.6c20-10,39.9-23.3,56.6-43.3v-396.1h133.1v6.7h0Z"/>
  <path class="cls-1" d="M9745.6-699.4c-3.3,6.7-6.7,10-10,13.3-3.3,3.3-10,3.3-13.3,3.3s-13.3,0-20-6.7c-6.7-3.3-16.6-6.7-26.6-13.3-10-6.7-20-10-33.3-13.3-13.3-3.3-26.6-6.7-43.3-6.7-26.6,0-46.6,6.7-59.9,16.6-13.3,10-23.3,26.6-23.3,43.3s3.3,20,10,30c6.7,6.7,16.6,16.6,30,20,13.3,6.7,26.6,10,43.3,16.6,16.6,3.3,33.3,10,49.9,16.6,16.6,6.7,33.3,13.3,49.9,20,16.6,6.7,30,16.6,43.3,26.6,13.3,10,23.3,23.3,30,39.9,6.7,16.6,10,33.3,10,56.6s-3.3,49.9-13.3,73.2c-10,23.3-23.3,39.9-43.3,56.6-20,16.6-39.9,30-69.9,36.6-26.6,10-59.9,13.3-93.2,13.3s-36.6,0-56.6-6.7c-16.6-3.3-36.6-6.7-53.3-13.3-16.6-6.7-33.3-13.3-46.6-20-13.3-6.7-26.6-16.6-36.6-26.6l30-49.9c3.3-6.7,10-10,13.3-13.3,6.7,0,13.3-3.3,20-3.3s16.6,0,23.3,6.7c6.7,3.3,16.6,10,26.6,13.3,10,3.3,20,10,33.3,13.3,13.3,3.3,30,6.7,49.9,6.7s30,0,39.9-6.7c10-3.3,20-10,26.6-13.3,6.7-6.7,13.3-13.3,16.6-20,3.3-6.7,6.7-16.6,6.7-23.3,0-13.3-3.3-23.3-10-30-6.7-6.7-16.6-16.6-30-20-13.3-6.7-26.6-10-43.3-16.6-16.6-6.7-33.3-10-49.9-16.6-16.6-6.7-33.3-13.3-49.9-20-16.6-6.7-30-16.6-43.3-30-13.3-13.3-23.3-26.6-30-43.3-6.7-16.6-10-36.6-10-63.2s3.3-43.3,13.3-63.2c10-20,23.3-36.6,39.9-53.3,16.6-16.6,39.9-26.6,63.2-36.6,26.6-10,56.6-13.3,89.9-13.3s73.2,6.7,103.2,20c30,13.3,56.6,30,76.6,49.9l-30,46.6h0v3.3Z"/>
  <path class="cls-1" d="M9982-516.3c0,26.6,6.7,53.3,13.3,73.2,6.7,20,16.6,36.6,30,49.9,13.3,13.3,26.6,23.3,46.6,30,16.6,6.7,36.6,10,59.9,10s39.9,0,56.6-6.7c16.6-3.3,30-10,39.9-16.6,10-6.7,23.3-10,30-16.6,10-3.3,16.6-6.7,26.6-6.7s20,3.3,23.3,13.3l36.6,46.6c-13.3,16.6-30,30-49.9,43.3-16.6,10-36.6,20-56.6,26.6-20,6.7-39.9,13.3-59.9,13.3s-39.9,3.3-59.9,3.3c-36.6,0-73.2-6.7-106.5-20-33.3-13.3-59.9-30-86.5-56.6-26.6-26.6-43.3-56.6-56.6-93.2-13.3-36.6-20-79.9-20-126.5s6.7-73.2,16.6-106.5c13.3-33.3,30-59.9,53.3-86.5,23.3-23.3,49.9-43.3,83.2-56.6,33.3-13.3,69.9-20,109.8-20s66.6,6.7,96.5,16.6c30,10,53.3,26.6,76.6,46.6,20,20,36.6,46.6,49.9,76.6,13.3,30,16.6,66.6,16.6,106.5s0,33.3-6.7,39.9c-6.7,6.7-13.3,10-23.3,10h-339.5v6.7h0ZM10234.9-596.2c0-16.6,0-33.3-6.7-46.6-3.3-16.6-13.3-30-20-39.9-6.7-10-23.3-20-36.6-26.6-13.3-6.7-33.3-10-49.9-10-36.6,0-66.6,10-89.9,33.3-23.3,23.3-36.6,53.3-43.3,93.2h249.6l-3.3-3.3Z"/>
  <path class="cls-1" d="M6115.8,1828.9c0,299.8-52.9,476.1-88.2,634.8-52.9,176.3-88.2,352.6-88.2,722.9s88.2,511.3,158.7,687.7c88.2,194,194,405.5,194,811.1s0,123.4,0,176.3c52.9-70.5,123.4-141.1,194-211.6,335-335,722.9-564.2,1128.5-687.7h0c0-1110.8-652.4-2010.1-1498.8-2098.3v-35.3Z"/>
  <path class="cls-1" d="M6768.2,6977.6c158.7-105.8,317.4-194,564.2-440.8,246.9-246.9,299.8-423.2,370.3-599.5,70.5-211.6,141.1-423.2,440.8-705.3,282.1-282.1,440.8-387.9,617.1-476.1,141.1-88.2,264.5-158.7,458.4-352.6-246.9-194-564.2-299.8-899.3-299.8-546.6,0-1146.1,246.9-1639.8,740.6-405.5,405.5-652.4,899.3-705.3,1357.7h0c-70.5,440.8,35.3,864,282.1,1181.4,211.6-211.6,370.3-299.8,511.3-387.9h0v-17.6Z"/>
  <path class="cls-1" d="M5727.9,6007.8c52.9-211.6,123.4-440.8,229.2-652.4,35.3-158.7,70.5-335,70.5-670s-88.2-511.3-158.7-687.7c-88.2-194-194-405.5-194-811.1s52.9-581.9,88.2-775.8c35.3-158.7,70.5-317.4,88.2-581.9-828.7,88.2-1481.1,1005-1481.1,2098.3s581.9,1921.9,1357.7,2080.6Z"/>
  <path class="cls-1" d="M7561.7,7824c511.3-70.5,1005-317.4,1410.6-722.9,405.5-405.5,652.4-899.3,722.9-1410.6,52.9-440.8-52.9-846.4-282.1-1128.5-211.6,211.6-370.3,299.8-511.3,387.9-158.7,105.8-317.4,194-564.2,440.8-246.9,246.9-299.8,423.2-370.3,599.5-70.5,211.6-141.1,423.2-440.8,705.3-282.1,282.1-440.8,387.9-617.1,476.1-141.1,88.2-264.5,158.7-476.1,352.6,299.8,246.9,687.7,335,1128.5,282.1h0v17.6Z"/>
</svg>